# xmcd
#
# Track frame offsets:
#	150
#	16026
#	32984
#	51455
#	66107
#	85209
#	101827
#	119802
#	134497
#	150608
#	165434
#	181174
#	201370
#	216260
#
# Disc length: 3071 seconds
#
# Revision: 3
# Processed by: cddbd v1.5.2PL0 Copyright (c) Steve Scherf et al.
# Submitted via: audiograbber 1.83.01
#
DISCID=ca0bfd0e
DTITLE=Various Artist - SD 157
DYEAR=2007
DGENRE=Karaoke
TTITLE0=Kenny Chesney - Never Wanted Nothing More
TTITLE1=Reba  McEntire, and Kelly Clarkson - Because Of You
TTITLE2=Tim McGraw,  - If You're Reading This
TTITLE3=Brooks and Dunn - Proud Of The House We Built
TTITLE4=Faith Hill,  - Lost
TTITLE5=Blake Shelton,  - The More I Drink, 
TTITLE6=LeAnn Rimes,  - Nothin' Better To Do
TTITLE7=Dierks Bentley,  - Free And Easy (Down The Road I Go)
TTITLE8=Steve Holy,  - Men Buy The Drinks (Girls Call The Shots)
TTITLE9=Phil Vassar,  - This Is My Life
TTITLE10=Crossin' Dixon - Guitar Slinger
TTITLE11=Cook and Glenn - Shining Star
TTITLE12=Collin Raye,  - A Soldier's Prayer,
TTITLE13=Waycross - Nineteen
EXTD=
EXTT0=
EXTT1=
EXTT2=
EXTT3=
EXTT4=
EXTT5=
EXTT6=
EXTT7=
EXTT8=
EXTT9=
EXTT10=
EXTT11=
EXTT12=
EXTT13=
PLAYORDER=
